<svg id="visual" viewBox="0 0 900 600" width="900" height="600" xmlns="http://www.w3.org/2000/svg" xmlns:xlink="http://www.w3.org/1999/xlink" version="1.1"><rect x="0" y="0" width="900" height="600" fill="#FFFFFF"></rect><defs><linearGradient id="grad1_0" x1="33.3%" y1="100%" x2="100%" y2="0%"><stop offset="20%" stop-color="#009473" stop-opacity="1"></stop><stop offset="80%" stop-color="#009473" stop-opacity="1"></stop></linearGradient></defs><defs><linearGradient id="grad1_1" x1="33.3%" y1="100%" x2="100%" y2="0%"><stop offset="20%" stop-color="#009473" stop-opacity="1"></stop><stop offset="80%" stop-color="#96cab7" stop-opacity="1"></stop></linearGradient></defs><defs><linearGradient id="grad1_2" x1="33.3%" y1="100%" x2="100%" y2="0%"><stop offset="20%" stop-color="#ffffff" stop-opacity="1"></stop><stop offset="80%" stop-color="#96cab7" stop-opacity="1"></stop></linearGradient></defs><defs><linearGradient id="grad2_0" x1="0%" y1="100%" x2="66.7%" y2="0%"><stop offset="20%" stop-color="#009473" stop-opacity="1"></stop><stop offset="80%" stop-color="#009473" stop-opacity="1"></stop></linearGradient></defs><defs><linearGradient id="grad2_1" x1="0%" y1="100%" x2="66.7%" y2="0%"><stop offset="20%" stop-color="#96cab7" stop-opacity="1"></stop><stop offset="80%" stop-color="#009473" stop-opacity="1"></stop></linearGradient></defs><defs><linearGradient id="grad2_2" x1="0%" y1="100%" x2="66.7%" y2="0%"><stop offset="20%" stop-color="#96cab7" stop-opacity="1"></stop><stop offset="80%" stop-color="#ffffff" stop-opacity="1"></stop></linearGradient></defs><g transform="translate(900, 600)"><path d="M-405.6 0C-344.7 -23.3 -283.8 -46.6 -273.9 -89C-264 -131.4 -305.2 -192.7 -288.8 -209.8C-272.4 -226.9 -198.5 -199.8 -166.9 -229.8C-135.3 -259.8 -146.1 -346.9 -125.3 -385.8C-104.6 -424.6 -52.3 -415.1 0 -405.6L0 0Z" fill="#cae4da"></path><path d="M-270.4 0C-229.8 -15.5 -189.2 -31.1 -182.6 -59.3C-176 -87.6 -203.5 -128.5 -192.5 -139.9C-181.6 -151.3 -132.3 -133.2 -111.3 -153.2C-90.2 -173.2 -97.4 -231.3 -83.6 -257.2C-69.7 -283.1 -34.9 -276.7 0 -270.4L0 0Z" fill="#5eaf94"></path><path d="M-135.2 0C-114.9 -7.8 -94.6 -15.5 -91.3 -29.7C-88 -43.8 -101.7 -64.2 -96.3 -69.9C-90.8 -75.6 -66.2 -66.6 -55.6 -76.6C-45.1 -86.6 -48.7 -115.6 -41.8 -128.6C-34.9 -141.5 -17.4 -138.4 0 -135.2L0 0Z" fill="#009473"></path></g><g transform="translate(0, 0)"><path d="M405.6 0C362 28.9 318.4 57.7 313.8 102C309.3 146.2 343.8 205.9 328.2 238.4C312.5 271 246.5 276.4 198.7 273.4C150.8 270.5 121 259 90.9 279.6C60.7 300.2 30.4 352.9 0 405.6L0 0Z" fill="#cae4da"></path><path d="M270.4 0C241.3 19.2 212.3 38.5 209.2 68C206.2 97.5 229.2 137.2 218.8 158.9C208.3 180.6 164.4 184.3 132.4 182.3C100.5 180.3 80.6 172.7 60.6 186.4C40.5 200.2 20.2 235.3 0 270.4L0 0Z" fill="#5eaf94"></path><path d="M135.2 0C120.7 9.6 106.1 19.2 104.6 34C103.1 48.7 114.6 68.6 109.4 79.5C104.2 90.3 82.2 92.1 66.2 91.1C50.3 90.2 40.3 86.3 30.3 93.2C20.2 100.1 10.1 117.6 0 135.2L0 0Z" fill="#009473"></path></g></svg>